PathFileType	4	(X/Y/Z)	RBDS021\RBDS021runT35.trc
DataRate	CameraRate	NumFrames	NumMarkers	Units	OrigDataRate	OrigDataStartFrame	OrigNumFrames
150.000000	150.000000	4	33	mm	150.000000	1125	4500
Frame#	Time	L.ASIS			L.Heel.Bottom			L.Heel.Lateral			L.Heel.Top			L.Iliac.Crest			L.MT1			L.MT5			L.PSIS			L.Shank.Bottom.Lateral			L.Shank.Bottom.Medial			L.Shank.Top.Lateral			L.Shank.Top.Medial			L.Thigh.Bottom.Lateral			L.Thigh.Bottom.Medial			L.Thigh.Top.Lateral			L.Thigh.Top.Medial			R.ASIS			R.ASY			R.Heel.Bottom			R.Heel.Lateral			R.Heel.Top			R.Iliac.Crest			R.MT1			R.MT5			R.PSIS			R.Shank.Bottom.Lateral			R.Shank.Bottom.Medial			R.Shank.Top.Lateral			R.Shank.Top.Medial			R.Thigh.Bottom.Lateral			R.Thigh.Bottom.Medial			R.Thigh.Top.Lateral			R.Thigh.Top.Medial			
		X1	Y1	Z1	X2	Y2	Z2	X3	Y3	Z3	X4	Y4	Z4	X5	Y5	Z5	X6	Y6	Z6	X7	Y7	Z7	X8	Y8	Z8	X9	Y9	Z9	X10	Y10	Z10	X11	Y11	Z11	X12	Y12	Z12	X13	Y13	Z13	X14	Y14	Z14	X15	Y15	Z15	X16	Y16	Z16	X17	Y17	Z17	X18	Y18	Z18	X19	Y19	Z19	X20	Y20	Z20	X21	Y21	Z21	X22	Y22	Z22	X23	Y23	Z23	X24	Y24	Z24	X25	Y25	Z25	X26	Y26	Z26	X27	Y27	Z27	X28	Y28	Z28	X29	Y29	Z29	X30	Y30	Z30	X31	Y31	Z31	X32	Y32	Z32	X33	Y33	Z33	

1126	7.500000000000001	2127.281297557692	989.8837919060137	928.9918833489827	2110.636192539485	123.3398502919069	1011.614221080422	2131.338706074892	133.1817203901674	958.9015363103648	2127.546960540225	166.4183132896508	1001.966190683119	2043.860277650863	1085.196092045697	884.993313829216	2326.117820185644	93.8175304388469	1003.076358681694	2270.19914003448	81.95782515425449	902.679992345384	1952.042505627854	1043.595669524755	1006.777977936073	2195.436413530701	248.52810176091	922.5815193677225	2161.498962875071	260.0587676838002	965.1022460807525	2200.87904326334	327.199810757939	905.8504881225308	2167.44688306324	339.0516991659326	946.3770434485555	2209.878036804516	686.2974423903945	873.2856134002845	2153.037894475131	653.2246396977454	899.9454157370478	2147.145349494918	774.5507525321826	854.4602749917045	2091.812466579171	742.4507204727759	878.0906545898578	2133.84127322347	969.9172125808833	1144.183436445143	1648.934843575046	111.5676811395302	1114.322725567775	1516.4646707537	231.8223629164005	1056.215380108486	1531.044976603697	217.846302255954	1108.556959865091	1554.815630936067	249.8226525566106	1071.679963863783	2114.629166202154	1037.995715368682	1183.517599752711	1648.588685875276	68.6948570682252	1057.422875673473	1595.0043391744	80.6820722611168	1156.519279497635	1961.87080975559	1039.095781138625	1085.025320898248	1626.86137541008	284.7112885108668	1143.765792685462	1614.244543349978	304.3460585185651	1097.917447580083	1667.555918514873	357.1771421061197	1161.762086060707	1648.515288330482	375.5003200664103	1115.563793627893	1910.39699614289	663.4553129078956	1192.356773611121	1856.002020145786	691.3462673044326	1151.709442842339	1945.664776128904	765.9003978024866	1208.876020550944	1895.567946475666	791.6241496574488	1167.509259631435	
1127	7.506666666666667	2128.909294959089	991.801426507762	930.112266819767	2135.712186367788	111.6165112960234	1011.377765775414	2156.264949403701	122.434231011851	958.7765104710751	2149.883374345647	155.6428454814744	1001.477681786675	2047.418959308806	1088.091995069207	886.5138650246141	2352.56548346612	96.34120117012436	1005.236282570106	2298.740028553379	79.90796198075239	904.3928214201533	1953.886496584725	1045.621685765329	1007.630855596146	2212.542497091348	242.1658274731025	922.2554212779213	2178.107593675578	251.8464078236509	964.7749687941108	2213.241207735072	320.7505587897762	904.935246198312	2179.208831819283	330.8017363858474	945.4691870075225	2206.226468467005	683.5324456499268	873.0381557516388	2149.547508225683	651.6730067753842	901.1828334666766	2144.464584098003	772.6458610005795	854.659470779816	2089.282794431533	741.7770691704146	880.0917900738688	2135.467274560592	971.9179113890468	1144.320856016578	1634.877589699118	120.28461463826	1115.135949042928	1506.795905804309	246.0473907507409	1058.024388246395	1521.212437591598	231.6336075489081	1110.25597019099	1546.148582966011	262.376029089449	1073.146814729403	2117.827902945439	1042.173550921083	1182.395027718954	1632.296342292272	76.17440494760721	1058.76982434902	1580.091699724439	90.72154307041455	1157.778967098352	1964.089259909467	1041.792707046372	1086.01226177846	1618.055383767973	293.6967079319344	1145.035130119376	1605.234355774965	313.6658113110872	1099.36222346261	1660.050320088065	365.4418184690717	1162.727424414553	1640.658409605324	384.245130189204	1116.848517255932	1909.486991221426	667.5829616032456	1192.024783602353	1854.912926226598	697.2032663590164	1153.00560884104	1947.251039310649	768.9924265806449	1209.56914628165	1896.853333049476	796.3818012268204	1169.903556656159	
1128	7.513333333333334	2130.154433952015	993.3034688955814	931.0545291868416	2159.319286183935	101.4900273539258	1010.82509764506	2179.89705695328	113.0706764190557	958.370239081826	2170.938855302337	146.2289525743212	1000.631807027087	2050.783170547359	1090.289104874594	887.891579471767	2376.779169219978	99.53121643823454	1007.457626793805	2325.465762208134	78.61014672932134	906.160194212412	1955.442824649384	1047.044369020633	1008.339413928699	2228.46452123836	236.5767897604009	921.8071933905662	2193.605395488286	244.4405033422962	964.3206901126722	2224.587080866782	314.8246921701245	904.0202643764513	2190.044155612661	323.1066242185291	944.5566710091358	2202.073328316072	680.0777938790094	872.674577919324	2145.619429686166	649.5633919161781	902.4758323486969	2141.342205852103	770.0601121671577	854.5866453391175	2086.390233640305	740.5185389465195	881.9166998566706	2137.011450472803	973.5355399635381	1144.329007195178	1621.084341338495	129.812537832863	1115.5778657986	1497.485556401831	260.1377925655935	1058.552276718031	1511.482978217497	245.5122095214658	1110.773133107181	1537.591503256115	274.9707622717024	1073.459976693167	2120.1921704729	1046.198121660699	1181.403356778769	1616.690333066103	84.55813204574568	1059.841413660376	1565.433318180828	101.6522005145828	1158.493943373652	1966.029813062389	1043.879457498714	1086.866481503018	1609.645625846145	303.0118996202727	1145.612935890216	1596.832927717521	323.4859411890609	1100.145384734811	1653.290305376055	373.7053359443414	1163.236690981899	1633.796936928069	393.1928425934669	1117.663551745032	1909.879935045702	670.608481052476	1191.997310306182	1854.802633723484	701.6754311280001	1154.978207687734	1949.644030483027	771.1012905634583	1210.52188632792	1898.608458119315	799.9050929285575	1172.994982157105	
1129	7.52	2131.002140586775	994.3825408167897	931.74984872792	2181.018210340382	92.95402094111991	1010.179168681221	2201.746641030942	105.0464797170369	957.8722575889151	2190.32868457555	138.1804267246954	999.6129014276354	2053.779906969969	1091.773673313151	889.0583826322029	2398.483044880429	103.0454079048624	1009.62336954397	2349.86993097142	77.76973039316321	907.9614929599513	1956.709137221179	1047.88722630437	1008.891352986735	2242.893087702379	231.7014374630958	921.3270390204564	2207.712276339462	237.8062901491148	963.8618685642501	2234.657011462847	309.4258807137578	903.21384419335	2199.722384524524	315.995582408028	943.7805213967602	2197.568966647695	676.150504579795	872.1919889876131	2141.389403960161	647.0665997405633	903.7424193295649	2137.911230967172	766.9925261174404	854.2377507980565	2083.259820314314	738.830352989968	883.4811429706723	2138.507628606305	974.7988003065745	1144.178722961043	1607.586552091309	140.0103584431888	1115.683768160505	1488.611190140216	274.1062466159993	1057.809961876044	1501.909354105924	259.4486493946563	1110.120192876884	1529.233707657739	287.6055594524422	1072.681720778972	2121.780084224228	1049.944938773883	1180.578281311128	1601.833432423852	93.74797188197387	1060.600712760245	1551.00323448198	113.3457186225398	1158.621351889782	1967.693637118009	1045.35442303974	1087.574663428943	1601.657494069479	312.6517788299933	1145.523837140854	1589.111391331377	333.7457260950997	1100.260499674639	1647.260375113624	381.9776734442037	1163.290543203909	1627.960492667132	402.295720830345	1117.97582286723	1911.415238190685	672.5355390265287	1192.264238768961	1855.559326963772	704.727204897253	1157.477694293021	1952.658931091128	772.2806728774398	1211.665457217174	1900.694918505903	802.2054285122392	1176.582148171817	
